<mxfile host="app.diagrams.net" modified="2023-04-01T12:28:16.162Z" agent="Mozilla/5.0 (Windows NT 10.0; Win64; x64) AppleWebKit/537.36 (KHTML, like Gecko) Chrome/110.0.0.0 Safari/537.36 OPR/96.0.0.0" version="21.1.1" etag="H3VJ4o-N3Rfm8ZsqjHLH" type="github">
  <diagram name="Page-1" id="5nHFQc_6EnPe64HPJUok">
    <mxGraphModel>
      <root>
        <mxCell id="0" />
        <mxCell id="1" parent="0" />
      </root>
    </mxGraphModel>
  </diagram>
</mxfile>
